<?xml version="1.0" encoding="utf-8"?>
<!-- Generator: Adobe Illustrator 19.0.0, SVG Export Plug-In . SVG Version: 6.00 Build 0)  -->
<svg version="1.1" id="Layer_1" xmlns="http://www.w3.org/2000/svg" xmlns:xlink="http://www.w3.org/1999/xlink" x="0px" y="0px"
	 viewBox="0 0 50 50" style="enable-background:new 0 0 50 50;" xml:space="preserve">
<style type="text/css">
	.st0{fill:#FFFFFF;}
</style>
<g id="XMLID_248_">
	<path id="XMLID_165_" class="st0" d="M20.2,23.3c0,0,4.7-0.4,4.7-5.9c0-5.5-3.9-8.2-8.7-8.2h-9H6.9H0.1v30.9h6.8h0.3h9
		c0,0,9.8,0.3,9.8-9.1C26,31,26.4,23.3,20.2,23.3z M15,14.7h1.2c0,0,2.2,0,2.2,3.2c0,3.2-1.3,3.7-2.7,3.7H7.2v-6.9H15z M15.7,34.6
		H7.2v-8.3h9c0,0,3.3,0,3.3,4.2C19.4,34.2,17,34.6,15.7,34.6z"/>
	<path id="XMLID_162_" class="st0" d="M39.1,17.1C27.2,17.1,27.2,29,27.2,29s-0.8,11.8,11.9,11.8c0,0,10.6,0.6,10.6-8.2h-5.4
		c0,0,0.2,3.3-5,3.3c0,0-5.4,0.4-5.4-5.4h16C49.8,30.5,51.6,17.1,39.1,17.1z M33.8,26.4c0,0,0.7-4.8,5.4-4.8c4.8,0,4.7,4.8,4.7,4.8
		H33.8z"/>
	<rect id="XMLID_161_" x="32.4" y="11" class="st0" width="12.7" height="3.8"/>
</g>
</svg>
