<?xml version="1.0" encoding="utf-8"?>
<!-- Generator: Adobe Illustrator 19.0.0, SVG Export Plug-In . SVG Version: 6.00 Build 0)  -->
<svg version="1.1" xmlns="http://www.w3.org/2000/svg" xmlns:xlink="http://www.w3.org/1999/xlink" x="0px" y="0px"
	 viewBox="0 0 2512 286.9" style="enable-background:new 0 0 2512 286.9;" xml:space="preserve">
<style type="text/css">
	.st0{display:none;}
	.st1{display:inline;fill:#6058A6;}
	.st2{display:inline;fill:#34429A;}
</style>
<g id="guide">
</g>
<g id="draft" class="st0">
	<rect id="XMLID_300_" x="258.2" y="-1776" class="st1" width="286.9" height="71.7"/>
	<rect id="XMLID_302_" x="1334.2" y="-1776" class="st1" width="71.7" height="286.9"/>
	<rect id="XMLID_320_" x="1334.2" y="-1417.3" class="st1" width="71.7" height="286.9"/>
	<circle id="XMLID_306_" class="st1" cx="-277" cy="-1632.5" r="143.5"/>
	<circle id="XMLID_305_" class="st2" cx="-277" cy="-1632.5" r="71.6"/>
	<path id="XMLID_309_" class="st1" d="M473.3-1632.5c0,39.6-32.1,71.6-71.6,71.6c-39.6,0-71.6-32.1-71.6-71.6h-71.8
		c0,79.2,64.2,143.5,143.5,143.5s143.5-64.2,143.5-143.5H473.3z"/>
	<path id="XMLID_304_" class="st1" d="M688.7-1632.5c0-39.6,32.1-71.6,71.6-71.6c39.6,0,71.6,32.1,71.6,71.6h71.8
		c0-79.2-64.2-143.5-143.5-143.5s-143.5,64.2-143.5,143.5H688.7z"/>
	<path id="XMLID_313_" class="st1" d="M-446.6-1202.1c0-39.6,32.1-71.6,71.6-71.6v-71.8c-79.2,0-143.5,64.2-143.5,143.5"/>
	<path id="XMLID_314_" class="st1" d="M688.7-1632.5h-71.8c0,79.2,64.2,143.5,143.5,143.5v-71.8
		C720.8-1560.9,688.7-1593,688.7-1632.5z"/>
	<path id="XMLID_308_" class="st1" d="M-341.7-1889c0-79.2,64.2-143.5,143.5-143.5s143.5,64.2,143.5,143.5"/>
	<path id="XMLID_307_" class="st2" d="M-269.9-1889c0-39.6,32.1-71.6,71.6-71.6s71.6,32.1,71.6,71.6"/>
	<rect id="XMLID_301_" x="473.3" y="-1704.3" class="st2" width="71.8" height="71.7"/>
	<rect id="XMLID_310_" x="832" y="-1632.5" class="st2" width="71.8" height="143.5"/>
	<path id="XMLID_318_" class="st1" d="M1549.5-1273.9c0-39.6,32.1-71.6,71.6-71.6c39.6,0,71.6,32.1,71.6,71.6h71.8
		c0-79.2-64.2-143.5-143.5-143.5c-79.2,0-143.5,64.2-143.5,143.5H1549.5z"/>
	<rect id="XMLID_317_" x="1692.8" y="-1273.9" class="st2" width="71.8" height="143.5"/>
	<rect id="XMLID_319_" x="1477.7" y="-1273.9" class="st2" width="71.8" height="143.5"/>
	<rect id="XMLID_312_" x="975.5" y="-1704.3" class="st2" width="71.8" height="215.2"/>
	<rect id="XMLID_315_" x="1083.1" y="-1704.2" class="st2" width="71.8" height="215.1"/>
	<rect id="XMLID_321_" x="1047.3" y="-1776" class="st2" width="143.5" height="71.7"/>
	<rect id="XMLID_316_" x="1190.7" y="-1704.3" class="st2" width="71.8" height="215.2"/>
	<rect id="XMLID_311_" x="760.3" y="-1560.8" class="st2" width="35.9" height="71.7"/>
	<path id="XMLID_331_" class="st1" d="M1621.2-1704.2c-39.6,0-71.6,32.1-71.6,71.6s32.1,71.6,71.6,71.6v71.8
		c-79.2,0-143.5-64.2-143.5-143.5s64.2-143.5,143.5-143.5V-1704.2z"/>
	<path id="XMLID_330_" class="st1" d="M1621.2-1704.2v-71.8c79.2,0,143.5,64.2,143.5,143.5h-71.8
		C1692.8-1672.1,1660.7-1704.2,1621.2-1704.2z"/>
	<rect id="XMLID_329_" x="1621.2" y="-1560.9" class="st2" width="143.5" height="71.8"/>
	<rect id="XMLID_325_" x="1692.9" y="-1632.6" class="st2" width="71.7" height="35.9"/>
	<path id="XMLID_323_" class="st2" d="M1047.4-1632.5c-39.6,0-71.7-32.1-71.7-71.7s32.1-71.7,71.7-71.7"/>
	<path id="XMLID_303_" class="st2" d="M1190.8-1776c39.6,0,71.7,32.1,71.7,71.7s-32.1,71.7-71.7,71.7"/>
	<path id="XMLID_326_" class="st2" d="M-118.6-1321.5v28.3h28.3C-105.9-1293.2-118.6-1305.8-118.6-1321.5z"/>
	<path id="XMLID_327_" class="st2" d="M1072.5-1704.3h-25.2v25.2C1047.4-1693,1058.6-1704.3,1072.5-1704.3z"/>
	<path id="XMLID_324_" class="st2" d="M1165.6-1704.3h25.2v25.2C1190.8-1693,1179.5-1704.3,1165.6-1704.3z"/>
	<rect id="XMLID_339_" x="975.5" y="-1345.6" class="st2" width="71.8" height="215.2"/>
	<rect id="XMLID_338_" x="1083.1" y="-1345.5" class="st2" width="71.8" height="215.1"/>
	<rect id="XMLID_337_" x="1047.3" y="-1417.3" class="st2" width="143.5" height="71.7"/>
	<rect id="XMLID_336_" x="1190.7" y="-1345.6" class="st2" width="71.8" height="215.2"/>
	<path id="XMLID_335_" class="st2" d="M1047.4-1273.9c-39.6,0-71.7-32.1-71.7-71.7s32.1-71.7,71.7-71.7"/>
	<path id="XMLID_334_" class="st2" d="M1190.8-1417.3c39.6,0,71.7,32.1,71.7,71.7s-32.1,71.7-71.7,71.7"/>
	<path id="XMLID_333_" class="st2" d="M1072.5-1345.6h-25.2v25.2C1047.4-1334.3,1058.6-1345.6,1072.5-1345.6z"/>
	<path id="XMLID_332_" class="st2" d="M1165.6-1345.6h25.2v25.2C1190.8-1334.3,1179.5-1345.6,1165.6-1345.6z"/>
	<path id="XMLID_328_" class="st2" d="M-90.3-1293.2H-62v-28.3C-62-1305.8-74.7-1293.2-90.3-1293.2z"/>
</g>
<g id="black">
	<rect id="XMLID_186_" x="1334.2" y="-1776" width="71.7" height="286.9"/>
	<rect id="XMLID_185_" x="1334.2" y="-1417.3" width="71.7" height="286.9"/>
	<path id="XMLID_189_" d="M258.2-1776v71.7h215.1v71.7c0,39.6-32.1,71.6-71.6,71.6c-39.6,0-71.6-32.1-71.6-71.6h-71.8
		c0,79.2,64.2,143.5,143.5,143.5s143.5-64.2,143.5-143.5v-71.7v-71.7H258.2z"/>
	<path id="XMLID_5_" d="M1764.6-1275.8c-1.1-78.3-64.9-141.5-143.4-141.5c-79.2,0-143.5,64.2-143.5,143.5v143.5h71.8v-143.5
		c0-39.6,32.1-71.6,71.6-71.6c39.6,0,71.6,32.1,71.6,71.6h0v143.5h71.8L1764.6-1275.8L1764.6-1275.8z"/>
	<path id="XMLID_182_" d="M903.8-1632.8c-0.1-79.1-64.3-143.2-143.5-143.2c-79.2,0-143.5,64.2-143.5,143.5l0,0l0,0l0,0l0,0
		c0,79.2,64.2,143.4,143.4,143.5v0h35.9v-71.7h-35.9v-0.1c-39.6,0-71.6-32.1-71.6-71.6h0c0-39.6,32.1-71.6,71.6-71.6
		c39.6,0,71.6,32.1,71.6,71.6v143.5h71.8L903.8-1632.8L903.8-1632.8z"/>
	<path id="XMLID_159_" d="M1621-1489.1c-79.1-0.1-143.2-64.3-143.2-143.5c0-79.2,64.2-143.5,143.5-143.5l0,0l0,0l0,0l0,0
		c79.2,0,143.4,64.2,143.5,143.4h0v35.9H1693v-35.9h-0.1c0-39.6-32.1-71.6-71.6-71.6v0c-39.6,0-71.6,32.1-71.6,71.6
		c0,39.6,32.1,71.6,71.6,71.6h143.5v71.8L1621-1489.1L1621-1489.1z"/>
	<path id="XMLID_164_" d="M1262.5-1704.3c0-39.6-32.1-71.7-71.7-71.7h-143.5v0c-39.6,0-71.7,32.1-71.7,71.7h-0.1v215.2h71.8v-143.5
		v-46.6c0-13.9,11.3-25.2,25.2-25.2h10.6v215.1h71.8v-215.1h10.6c13.4,0,24.3,10.5,25.1,23.7v191.5h71.8L1262.5-1704.3
		L1262.5-1704.3z"/>
	<path id="XMLID_4_" d="M1262.5-1345.6c0-39.6-32.1-71.7-71.7-71.7h-143.5v0c-39.6,0-71.7,32.1-71.7,71.7h-0.1v215.2h71.8v-143.5
		v-46.6c0-13.9,11.3-25.2,25.2-25.2h10.6v215.1h71.8v-215.1h10.6c13.4,0,24.3,10.5,25.1,23.7v191.5h71.8L1262.5-1345.6
		L1262.5-1345.6z"/>
	<rect id="XMLID_166_" x="1334.2" y="-956" width="71.7" height="286.9"/>
	<path id="XMLID_165_" d="M258.2-956v71.7h215.1v71.7c0,39.6-32.1,71.6-71.6,71.6c-39.6,0-71.6-32.1-71.6-71.6h-71.8
		c0,79.2,64.2,143.5,143.5,143.5s143.5-64.2,143.5-143.5v-71.7V-956H258.2z"/>
	<path id="XMLID_163_" d="M903.8-812.8C903.7-891.9,839.5-956,760.4-956c-79.2,0-143.5,64.2-143.5,143.5l0,0l0,0v0l0,0
		c0,79.2,64.2,143.4,143.4,143.5v0h35.9v-71.7h-35.9v-0.1c-39.6,0-71.6-32.1-71.6-71.6h0c0-39.6,32.1-71.6,71.6-71.6
		c39.6,0,71.6,32.1,71.6,71.6v143.5h71.8L903.8-812.8L903.8-812.8z"/>
	<path id="XMLID_162_" d="M1621-669.1c-79.1-0.1-143.2-64.3-143.2-143.5c0-79.2,64.2-143.5,143.5-143.5l0,0l0,0l0,0l0,0
		c79.2,0,143.4,64.2,143.5,143.4h0v35.9H1693v-35.9h-0.1c0-39.6-32.1-71.6-71.6-71.6v0c-39.6,0-71.6,32.1-71.6,71.6
		c0,39.6,32.1,71.6,71.6,71.6h143.5v71.8L1621-669.1L1621-669.1z"/>
	<path id="XMLID_161_" d="M1262.5-884.3c0-39.6-32.1-71.7-71.7-71.7h-143.5v0c-39.6,0-71.7,32.1-71.7,71.7h-0.1v215.2h71.8v-143.5
		v-46.6c0-13.9,11.3-25.2,25.2-25.2h10.6v215.1h71.8v-215.1h10.6c13.4,0,24.3,10.5,25.1,23.7v191.5h71.8L1262.5-884.3L1262.5-884.3z
		"/>
	<rect id="XMLID_155_" x="2267.7" y="-956" width="71.7" height="286.9"/>
	<path id="XMLID_154_" d="M2698-814.5c-1.1-78.3-64.9-141.5-143.4-141.5c-79.2,0-143.5,64.2-143.5,143.5v143.5h71.8v-143.5
		c0-39.6,32.1-71.6,71.6-71.6c39.6,0,71.6,32.1,71.6,71.6h0v143.5h71.8L2698-814.5L2698-814.5z"/>
	<path id="XMLID_153_" d="M2195.9-884.3c0-39.6-32.1-71.7-71.7-71.7h-143.5v0c-39.6,0-71.7,32.1-71.7,71.7h-0.1v215.2h71.8v-143.5
		v-46.6c0-13.9,11.3-25.2,25.2-25.2h10.6v215.1h71.8v-215.1h10.6c13.4,0,24.3,10.5,25.1,23.7v191.5h71.8L2195.9-884.3L2195.9-884.3z
		"/>
	<rect id="XMLID_212_" x="1076" y="0" width="71.7" height="286.9"/>
	<path id="XMLID_211_" d="M0,0v71.7h215.1v71.7c0,39.6-32.1,71.6-71.6,71.6c-39.6,0-71.6-32.1-71.6-71.6H0
		c0,79.2,64.2,143.5,143.5,143.5s143.5-64.2,143.5-143.5V71.7V0H0z"/>
	<path id="XMLID_210_" d="M645.6,143.2C645.5,64.1,581.3,0,502.1,0c-79.2,0-143.5,64.2-143.5,143.5l0,0l0,0v0l0,0
		c0,79.2,64.2,143.4,143.4,143.5v0H538v-71.7h-35.9v-0.1c-39.6,0-71.6-32.1-71.6-71.6h0c0-39.6,32.1-71.6,71.6-71.6
		c39.6,0,71.6,32.1,71.6,71.6v143.5h71.8L645.6,143.2L645.6,143.2z"/>
	<path id="XMLID_209_" d="M1362.7,286.9c-79.1-0.1-143.2-64.3-143.2-143.5C1219.5,64.2,1283.8,0,1363,0l0,0l0,0l0,0l0,0
		c79.2,0,143.4,64.2,143.5,143.4h0v35.9h-71.7v-35.9h-0.1c0-39.6-32.1-71.6-71.6-71.6v0c-39.6,0-71.6,32.1-71.6,71.6
		c0,39.6,32.1,71.6,71.6,71.6h143.5v71.8L1362.7,286.9L1362.7,286.9z"/>
	<path id="XMLID_208_" d="M1004.3,71.7c0-39.6-32.1-71.7-71.7-71.7H789.1v0c-39.6,0-71.7,32.1-71.7,71.7h-0.1v215.2h71.8V143.5V96.9
		c0-13.9,11.3-25.2,25.2-25.2h10.6v215.1h71.8V71.7h10.6c13.4,0,24.3,10.5,25.1,23.7v191.5h71.8L1004.3,71.7L1004.3,71.7z"/>
	<rect id="XMLID_215_" x="2081.6" y="0" width="71.7" height="286.9"/>
	<path id="XMLID_214_" d="M2511.9,141.5C2510.8,63.2,2447,0,2368.5,0C2289.2,0,2225,64.2,2225,143.5v143.5h71.8V143.5
		c0-39.6,32.1-71.6,71.6-71.6c39.6,0,71.6,32.1,71.6,71.6h0v143.5h71.8L2511.9,141.5L2511.9,141.5z"/>
	<path id="XMLID_213_" d="M2009.8,71.7c0-39.6-32.1-71.7-71.7-71.7h-143.5v0c-39.6,0-71.7,32.1-71.7,71.7h-0.1v215.2h71.8V143.5
		V96.9c0-13.9,11.3-25.2,25.2-25.2h10.6v215.1h71.8V71.7h10.6c13.4,0,24.3,10.5,25.1,23.7v191.5h71.8L2009.8,71.7L2009.8,71.7z"/>
</g>
</svg>
